<?xml version="1.0" encoding="UTF-8"?>
<svg xmlns="http://www.w3.org/2000/svg" width="158" height="48" viewBox="0 0 158 48" fill="none">
  <path d="M24.7939 38.9519H20.0592C19.9534 38.9519 19.8652 38.8643 19.8652 38.7591V26.365H24.9791V38.7679C24.9879 38.873 24.8997 38.9519 24.7939 38.9519Z" fill="#3CB44A"></path>
  <path d="M37.3669 17.203C36.8643 16.2132 36.1854 15.3285 35.3566 14.5928C34.6777 14.0147 33.9194 13.5242 33.1083 13.1475L33.0642 13.13C32.1296 12.7008 31.336 12.5782 30.6836 12.4818C29.7137 12.3417 28.735 12.3417 27.7652 12.4818C24.8732 12.9198 22.3692 14.6891 20.9849 17.2468C20.9056 17.3869 19.9533 19.1738 19.8828 21.0833C19.8828 21.1621 19.8828 21.2322 19.8828 21.3023V24.3592C19.8828 24.3592 20.9585 23.3169 23.1098 21.1358C24.6175 19.6117 26.1958 17.965 26.8658 17.5008C27.3508 17.1767 27.8886 16.949 28.4617 16.8176C29.0877 16.6774 29.7402 16.6599 30.375 16.7825C31.9621 17.1154 32.8526 18.3066 33.0025 18.5081C34.325 20.33 33.6461 22.4585 33.5403 22.7475C33.1612 23.8424 32.4205 24.7709 31.4419 25.4015C31.3449 25.4628 31.2567 25.5066 31.2479 25.5154C30.9746 25.6731 29.8283 26.2424 28.6469 26.076C28.1355 25.9971 27.6858 25.8745 27.4037 25.7869C27.2273 25.7344 27.0422 25.822 26.9893 25.9971C26.8394 26.4701 26.6366 27.1008 26.0811 28.9577C26.0459 29.0628 26.0282 29.2468 26.0459 29.3519C26.0723 29.492 26.1164 29.6234 26.1869 29.7461C26.2839 29.9125 26.5044 30.1577 27.4037 30.368C28.1531 30.5431 28.9202 30.5957 29.6873 30.5256C30.2868 30.4818 31.6446 30.3592 33.0201 29.6672C33.5491 29.4044 34.0605 29.0891 34.5366 28.73C34.8981 28.4672 35.2331 28.1782 35.5506 27.8628C36.3265 27.0745 36.9525 26.1461 37.3845 25.1212C37.7548 24.219 38.0017 23.2731 38.1339 22.3008C38.3367 20.584 38.0634 18.8147 37.3669 17.203Z" fill="#3CB44A"></path>
  <path d="M22.6516 14.2423C21.5142 15.1532 20.6149 16.327 20.033 17.6584C19.7155 17.5007 19.3805 17.3605 19.0455 17.2379C18.5693 17.0627 18.0844 16.9313 17.5907 16.8438C16.6208 16.6948 14.778 17.0365 13.5437 18.508C12.4415 19.8219 12.1594 21.6613 12.7501 23.124C13.3673 24.6306 14.7692 25.4277 14.9544 25.524C14.9985 25.5416 15.0778 25.5854 15.1836 25.6467C15.5628 25.8306 16.8412 26.435 18.296 26.0584C18.7721 25.9357 19.2218 25.7255 19.6186 25.4452C21.5054 24.1489 24.653 20.5051 26.3547 18.8408C26.7074 18.4992 27.2011 18.0262 27.9947 17.7459C28.6119 17.527 29.2731 17.4657 29.9168 17.562C29.9168 17.562 30.8426 17.7021 32.1122 18.7357C32.1915 18.797 32.2533 18.8846 32.2797 18.9897C32.2885 19.0773 32.2709 19.1737 32.218 19.2525C32.0857 19.4978 26.9278 24.7182 26.9278 24.7182C26.4429 25.2087 26.2136 25.489 25.3231 26.3737C23.983 27.7051 23.4539 28.1167 23.2423 28.2744C22.6163 28.7562 21.9374 29.1766 21.2232 29.527C19.9183 30.1927 18.4723 30.5518 16.9999 30.5693C16.5591 30.5693 13.72 30.543 11.3042 28.6073C11.216 28.5372 11.0132 28.3708 10.7663 28.1343C9.53195 26.9956 8.65025 25.5328 8.22704 23.9124C7.90963 22.616 7.88317 21.2584 8.1565 19.9532C8.50918 17.6058 9.83172 15.5124 11.8067 14.181C12.5473 13.6817 13.3585 13.2875 14.2049 13.0073C15.2013 12.6744 16.2417 12.508 17.2909 12.4905C18.0668 12.4817 19.1689 12.4817 20.465 12.9722C21.2761 13.2613 22.008 13.6992 22.6516 14.2423Z" fill="#3D6799"></path>
  <path d="M1.075 24.3592C1.10145 30.4994 3.54375 36.149 7.96986 40.2833C12.5635 44.5753 18.0741 46.5986 24.343 46.3096C30.1269 46.038 35.1085 43.7869 39.1378 39.6264C43.5463 35.0716 45.6271 29.5621 45.3185 23.2468C45.0364 17.5271 42.7792 12.6045 38.6176 8.6103C34.0416 4.23074 28.4781 2.15483 22.077 2.42636C10.3593 2.93439 1.1279 12.5694 1.075 24.3592ZM23.1439 47.3169C22.9058 47.3169 22.6589 47.3169 22.4209 47.3081C16.5752 47.1329 10.8354 44.6103 6.67377 40.3884C2.26529 35.9212 -0.0535731 29.9563 0.113949 23.5884C0.281472 17.7811 2.82076 12.0789 7.07935 7.94461C11.576 3.57381 17.5892 1.27016 23.9991 1.44534C29.9153 1.61176 35.4876 4.03804 39.6933 8.27746C43.9519 12.5607 46.3413 18.3417 46.3148 24.368C46.3501 30.4731 43.8196 36.4556 39.3583 40.7826C35.0027 45.0132 29.2716 47.3169 23.1439 47.3169Z" fill="url(#paint0_linear_880_3429)"></path>
  <path d="M56.2353 16.5638C55.1332 16.5638 54.278 16.9754 53.6784 17.7988C53.0788 18.6222 52.7703 19.7696 52.7791 21.2411C52.7791 24.3068 53.9341 25.8309 56.2441 25.8309C57.214 25.8309 58.3867 25.5857 59.7709 25.1127V27.5565C58.563 28.0382 57.2757 28.2835 55.9708 28.2572C53.9605 28.2572 52.4264 27.6528 51.3595 26.4353C50.2927 25.2178 49.7637 23.4835 49.7637 21.2236C49.7637 19.7959 50.0282 18.5433 50.5484 17.4747C51.0333 16.4411 51.818 15.5827 52.8055 15.0046C53.7842 14.4265 54.9304 14.1462 56.253 14.1462C57.5931 14.1462 58.9421 14.4703 60.2999 15.1185L59.3565 17.4835C58.8451 17.2382 58.3249 17.028 57.7959 16.8441C57.2845 16.6514 56.7643 16.5638 56.2353 16.5638Z" fill="#404041"></path>
  <mask id="mask0_880_3429" style="mask-type:luminance" maskUnits="userSpaceOnUse" x="49" y="14" width="12" height="15">
    <path d="M56.2353 16.5638C55.1332 16.5638 54.278 16.9754 53.6784 17.7988C53.0788 18.6222 52.7703 19.7696 52.7791 21.2411C52.7791 24.3068 53.9341 25.8309 56.2441 25.8309C57.214 25.8309 58.3867 25.5857 59.7709 25.1127V27.5565C58.563 28.0382 57.2757 28.2835 55.9708 28.2572C53.9605 28.2572 52.4264 27.6528 51.3595 26.4353C50.2927 25.2178 49.7637 23.4835 49.7637 21.2236C49.7637 19.7959 50.0282 18.5433 50.5484 17.4747C51.0333 16.4411 51.818 15.5827 52.8055 15.0046C53.7842 14.4265 54.9304 14.1462 56.253 14.1462C57.5931 14.1462 58.9421 14.4703 60.2999 15.1185L59.3565 17.4835C58.8451 17.2382 58.3249 17.028 57.7959 16.8441C57.2845 16.6514 56.7643 16.5638 56.2353 16.5638Z" fill="white"></path>
  </mask>
  <g mask="url(#mask0_880_3429)">
    <path d="M60.5201 13.9097H49.5254V28.5024H60.5201V13.9097Z" fill="#404041"></path>
  </g>
  <path d="M65.6333 20.4265H66.5767C67.5025 20.4265 68.1902 20.2688 68.6311 19.971C69.0719 19.6732 69.2924 19.1827 69.2924 18.5257C69.2924 17.8776 69.0631 17.4133 68.6135 17.133C68.1638 16.8615 67.4672 16.7213 66.515 16.7213H65.6333V20.4265ZM65.6333 22.8002V28.0644H62.6973V14.3389H66.7266C68.6046 14.3389 69.9977 14.6805 70.897 15.3549C71.7964 16.0294 72.246 17.063 72.2549 18.4469C72.2637 19.2177 72.0344 19.971 71.5848 20.6016C71.0998 21.2586 70.4474 21.7754 69.6891 22.0819C71.7699 25.1651 73.1277 27.1622 73.7537 28.0644H70.5003L67.2027 22.8002H65.6333Z" fill="#404041"></path>
  <mask id="mask1_880_3429" style="mask-type:luminance" maskUnits="userSpaceOnUse" x="62" y="14" width="12" height="15">
    <path d="M65.6333 20.4265H66.5767C67.5025 20.4265 68.1902 20.2688 68.6311 19.971C69.0719 19.6732 69.2924 19.1827 69.2924 18.5257C69.2924 17.8776 69.0631 17.4133 68.6135 17.133C68.1638 16.8615 67.4672 16.7213 66.515 16.7213H65.6333V20.4265ZM65.6333 22.8002V28.0644H62.6973V14.3389H66.7266C68.6046 14.3389 69.9977 14.6805 70.897 15.3549C71.7964 16.0294 72.246 17.063 72.2549 18.4469C72.2637 19.2177 72.0344 19.971 71.5848 20.6016C71.0998 21.2586 70.4474 21.7754 69.6891 22.0819C71.7699 25.1651 73.1277 27.1622 73.7537 28.0644H70.5003L67.2027 22.8002H65.6333Z" fill="white"></path>
  </mask>
  <g mask="url(#mask1_880_3429)">
    <path d="M73.9749 14.1111H62.4688V28.3009H73.9749V14.1111Z" fill="#404041"></path>
  </g>
  <path d="M83.4441 28.0644H75.4824V14.3389H83.4441V16.7213H78.4097V19.7345H83.0915V22.117H78.4097V25.6644H83.4441V28.0644Z" fill="#404041"></path>
  <mask id="mask2_880_3429" style="mask-type:luminance" maskUnits="userSpaceOnUse" x="75" y="14" width="9" height="15">
    <path d="M83.4441 28.0644H75.4824V14.3389H83.4441V16.7213H78.4097V19.7345H83.0915V22.117H78.4097V25.6644H83.4441V28.0644Z" fill="white"></path>
  </mask>
  <g mask="url(#mask2_880_3429)">
    <path d="M83.6741 14.1111H75.2539V28.3009H83.6741V14.1111Z" fill="#404041"></path>
  </g>
  <path d="M94.7483 21.1447C94.7483 18.1929 93.4346 16.7213 90.816 16.7213H89.2554V25.6644H90.5074C93.3376 25.6644 94.7483 24.1578 94.7483 21.1447ZM97.7902 21.0659C97.7902 23.3257 97.1465 25.06 95.8504 26.26C94.5544 27.46 92.6852 28.0644 90.2429 28.0644H86.3281V14.3389H90.6661C92.9232 14.3389 94.669 14.9345 95.921 16.117C97.1642 17.2907 97.7902 18.9462 97.7902 21.0659Z" fill="#404041"></path>
  <mask id="mask3_880_3429" style="mask-type:luminance" maskUnits="userSpaceOnUse" x="86" y="14" width="12" height="15">
    <path d="M94.7483 21.1447C94.7483 18.1929 93.4346 16.7213 90.816 16.7213H89.2554V25.6644H90.5074C93.3376 25.6644 94.7483 24.1578 94.7483 21.1447ZM97.7902 21.0659C97.7902 23.3257 97.1465 25.06 95.8504 26.26C94.5544 27.46 92.6852 28.0644 90.2429 28.0644H86.3281V14.3389H90.6661C92.9232 14.3389 94.669 14.9345 95.921 16.117C97.1642 17.2907 97.7902 18.9462 97.7902 21.0659Z" fill="white"></path>
  </mask>
  <g mask="url(#mask3_880_3429)">
    <path d="M98.0192 14.1111H86.0898V28.3009H98.0192V14.1111Z" fill="#404041"></path>
  </g>
  <path d="M103.105 21.1797C103.105 22.7126 103.396 23.8688 103.987 24.6483C104.578 25.4279 105.451 25.8133 106.615 25.8133C108.951 25.8133 110.115 24.2717 110.115 21.1797C110.115 18.0878 108.951 16.5461 106.623 16.5461C105.46 16.5461 104.578 16.9316 103.987 17.7111C103.405 18.4907 103.105 19.6469 103.105 21.1797ZM113.192 21.1797C113.192 23.4483 112.628 25.2002 111.49 26.4177C110.353 27.6352 108.731 28.2483 106.615 28.2483C104.498 28.2483 102.876 27.6352 101.739 26.4177C100.601 25.2002 100.037 23.4396 100.037 21.1622C100.037 18.8761 100.601 17.133 101.739 15.9243C102.876 14.7155 104.507 14.1199 106.632 14.1199C108.757 14.1199 110.379 14.7243 111.508 15.9418C112.637 17.1593 113.192 18.9024 113.192 21.1797Z" fill="#404041"></path>
  <mask id="mask4_880_3429" style="mask-type:luminance" maskUnits="userSpaceOnUse" x="100" y="14" width="14" height="15">
    <path d="M103.105 21.1797C103.105 22.7126 103.396 23.8688 103.987 24.6483C104.578 25.4279 105.451 25.8133 106.615 25.8133C108.951 25.8133 110.115 24.2717 110.115 21.1797C110.115 18.0878 108.951 16.5461 106.623 16.5461C105.46 16.5461 104.578 16.9316 103.987 17.7111C103.405 18.4907 103.105 19.6469 103.105 21.1797ZM113.192 21.1797C113.192 23.4483 112.628 25.2002 111.49 26.4177C110.353 27.6352 108.731 28.2483 106.615 28.2483C104.498 28.2483 102.876 27.6352 101.739 26.4177C100.601 25.2002 100.037 23.4396 100.037 21.1622C100.037 18.8761 100.601 17.133 101.739 15.9243C102.876 14.7155 104.507 14.1199 106.632 14.1199C108.757 14.1199 110.379 14.7243 111.508 15.9418C112.637 17.1593 113.192 18.9024 113.192 21.1797Z" fill="white"></path>
  </mask>
  <g mask="url(#mask4_880_3429)">
    <path d="M113.431 13.8921H99.8086V28.4848H113.431V13.8921Z" fill="#404041"></path>
  </g>
  <path d="M118.994 20.7943H119.955C120.854 20.7943 121.533 20.6192 121.974 20.2688C122.415 19.9184 122.644 19.4016 122.644 18.7272C122.644 18.044 122.459 17.5447 122.08 17.2206C121.7 16.8965 121.119 16.7301 120.316 16.7301H118.985L118.994 20.7943ZM125.606 18.6221C125.606 20.1024 125.139 21.2323 124.213 22.0119C123.288 22.7914 121.965 23.1856 120.246 23.1856H118.994V28.0732H116.066V14.3389H120.484C122.159 14.3389 123.437 14.698 124.31 15.4162C125.166 16.1257 125.606 17.1943 125.606 18.6221Z" fill="#404041"></path>
  <mask id="mask5_880_3429" style="mask-type:luminance" maskUnits="userSpaceOnUse" x="116" y="14" width="10" height="15">
    <path d="M118.994 20.7943H119.955C120.854 20.7943 121.533 20.6192 121.974 20.2688C122.415 19.9184 122.644 19.4016 122.644 18.7272C122.644 18.044 122.459 17.5447 122.08 17.2206C121.7 16.8965 121.119 16.7301 120.316 16.7301H118.985L118.994 20.7943ZM125.606 18.6221C125.606 20.1024 125.139 21.2323 124.213 22.0119C123.288 22.7914 121.965 23.1856 120.246 23.1856H118.994V28.0732H116.066V14.3389H120.484C122.159 14.3389 123.437 14.698 124.31 15.4162C125.166 16.1257 125.606 17.1943 125.606 18.6221Z" fill="white"></path>
  </mask>
  <g mask="url(#mask5_880_3429)">
    <path d="M125.835 14.1111H115.828V28.3009H125.835V14.1111Z" fill="#404041"></path>
  </g>
  <path d="M134.97 22.3535C134.044 19.3929 133.524 17.7199 133.41 17.3258C133.295 16.9404 133.207 16.6338 133.163 16.4061C132.951 17.2031 132.36 19.1915 131.373 22.3535H134.97ZM136.672 28.0644L135.667 24.7973H130.632L129.627 28.0644H126.471L131.346 14.2776H134.926L139.82 28.0644H136.672Z" fill="#404041"></path>
  <mask id="mask6_880_3429" style="mask-type:luminance" maskUnits="userSpaceOnUse" x="126" y="14" width="14" height="15">
    <path d="M134.97 22.3535C134.044 19.3929 133.524 17.7199 133.41 17.3258C133.295 16.9404 133.207 16.6338 133.163 16.4061C132.951 17.2031 132.36 19.1915 131.373 22.3535H134.97ZM136.672 28.0644L135.667 24.7973H130.632L129.627 28.0644H126.471L131.346 14.2776H134.926L139.82 28.0644H136.672Z" fill="white"></path>
  </mask>
  <g mask="url(#mask6_880_3429)">
    <path d="M140.058 14.0498H126.242V28.2921H140.058V14.0498Z" fill="#404041"></path>
  </g>
  <path d="M145.869 19.9885L148.752 14.3389H151.908L147.332 22.7213V28.0644H144.423V22.8177L139.838 14.3389H143.012L145.869 19.9885Z" fill="#404041"></path>
  <mask id="mask7_880_3429" style="mask-type:luminance" maskUnits="userSpaceOnUse" x="139" y="14" width="13" height="15">
    <path d="M145.869 19.9885L148.752 14.3389H151.908L147.332 22.7213V28.0644H144.423V22.8177L139.838 14.3389H143.012L145.869 19.9885Z" fill="white"></path>
  </mask>
  <g mask="url(#mask7_880_3429)">
    <path d="M152.147 14.1111H139.609V28.3009H152.147V14.1111Z" fill="#404041"></path>
  </g>
  <path d="M153.865 4.70365C151.926 4.6949 150.348 6.25402 150.339 8.18103C150.33 10.108 151.89 11.6759 153.83 11.6934C155.77 11.7022 157.348 10.1518 157.366 8.22482C157.375 7.29636 157.013 6.40293 156.352 5.73723C155.691 5.07154 154.8 4.70365 153.865 4.70365ZM153.874 12.2015C151.652 12.2102 149.836 10.4234 149.818 8.21606C149.801 6.00876 151.591 4.19563 153.821 4.17811C156.043 4.16059 157.868 5.92993 157.895 8.13723C157.912 9.20584 157.489 10.2394 156.74 11.0015C155.982 11.7723 154.95 12.2015 153.874 12.2015Z" fill="#404041"></path>
  <mask id="mask8_880_3429" style="mask-type:luminance" maskUnits="userSpaceOnUse" x="149" y="4" width="9" height="9">
    <path d="M153.865 4.70365C151.926 4.6949 150.348 6.25402 150.339 8.18103C150.33 10.108 151.89 11.6759 153.83 11.6934C155.77 11.7022 157.348 10.1518 157.366 8.22482C157.375 7.29636 157.013 6.40293 156.352 5.73723C155.691 5.07154 154.8 4.70365 153.865 4.70365ZM153.874 12.2015C151.652 12.2102 149.836 10.4234 149.818 8.21606C149.801 6.00876 151.591 4.19563 153.821 4.17811C156.043 4.16059 157.868 5.92993 157.895 8.13723C157.912 9.20584 157.489 10.2394 156.74 11.0015C155.982 11.7723 154.95 12.2015 153.874 12.2015Z" fill="white"></path>
  </mask>
  <g mask="url(#mask8_880_3429)">
    <path d="M158.142 3.93286H149.572V12.4467H158.142V3.93286Z" fill="#404041"></path>
  </g>
  <path d="M153.09 8.09339C153.549 8.09339 153.99 8.11091 154.448 8.08463C154.677 8.07587 154.827 7.90069 154.898 7.68171C154.968 7.48901 154.942 7.27879 154.827 7.11237C154.713 6.94595 154.519 6.84084 154.316 6.84084C153.928 6.82332 153.54 6.84084 153.143 6.84084C153.126 6.84084 153.108 6.8496 153.09 6.85836V8.09339ZM152.341 6.13135C152.5 6.13135 152.65 6.13135 152.791 6.13135C153.355 6.14011 153.919 6.11383 154.475 6.16638C155.594 6.28025 155.903 7.36638 155.515 8.12843C155.383 8.38244 155.154 8.56638 154.88 8.64522C154.818 8.67149 154.748 8.68901 154.66 8.72405L155.903 10.1255C155.638 10.1255 155.418 10.1167 155.206 10.1255C155.057 10.143 154.907 10.073 154.81 9.95033C154.51 9.5912 154.192 9.2496 153.893 8.89047C153.831 8.81164 153.734 8.76784 153.637 8.7766C153.452 8.78536 153.267 8.7766 153.055 8.7766V10.108H152.314L152.341 6.13135Z" fill="#404041"></path>
  <mask id="mask9_880_3429" style="mask-type:luminance" maskUnits="userSpaceOnUse" x="152" y="6" width="4" height="5">
    <path d="M153.09 8.09339C153.549 8.09339 153.99 8.11091 154.448 8.08463C154.677 8.07587 154.827 7.90069 154.898 7.68171C154.968 7.48901 154.942 7.27879 154.827 7.11237C154.713 6.94595 154.519 6.84084 154.316 6.84084C153.928 6.82332 153.54 6.84084 153.143 6.84084C153.126 6.84084 153.108 6.8496 153.09 6.85836V8.09339ZM152.341 6.13135C152.5 6.13135 152.65 6.13135 152.791 6.13135C153.355 6.14011 153.919 6.11383 154.475 6.16638C155.594 6.28025 155.903 7.36638 155.515 8.12843C155.383 8.38244 155.154 8.56638 154.88 8.64522C154.818 8.67149 154.748 8.68901 154.66 8.72405L155.903 10.1255C155.638 10.1255 155.418 10.1167 155.206 10.1255C155.057 10.143 154.907 10.073 154.81 9.95033C154.51 9.5912 154.192 9.2496 153.893 8.89047C153.831 8.81164 153.734 8.76784 153.637 8.7766C153.452 8.78536 153.267 8.7766 153.055 8.7766V10.108H152.314L152.341 6.13135Z" fill="white"></path>
  </mask>
  <g mask="url(#mask9_880_3429)">
    <path d="M156.142 5.8772H152.104V10.3706H156.142V5.8772Z" fill="#404041"></path>
  </g>
  <path d="M74.7071 36.7795C74.4867 37.4802 74.2663 38.1196 74.0371 38.7152C73.8078 39.3109 73.5874 39.889 73.3581 40.4495H72.5999C72.3177 39.6525 72.0797 38.8116 71.8681 37.9269C71.6565 37.0422 71.4537 36.0787 71.2773 35.0452H72.0797C72.1502 35.4481 72.2296 35.8598 72.3089 36.2627C72.3883 36.6656 72.4676 37.0598 72.5558 37.4452C72.644 37.8306 72.7233 38.1897 72.8027 38.5401C72.8908 38.8904 72.9702 39.2145 73.0584 39.5036C73.27 38.9605 73.4904 38.3561 73.7285 37.7079C73.9665 37.051 74.1869 36.3853 74.3897 35.6846H75.051C75.2538 36.3853 75.4742 37.0598 75.7211 37.7079C75.9591 38.3649 76.1884 38.9605 76.4 39.5036C76.4882 39.2145 76.5675 38.8904 76.6469 38.5401C76.735 38.1897 76.8144 37.8306 76.8937 37.4452C76.9731 37.0598 77.0525 36.6656 77.1318 36.2627C77.2112 35.851 77.2905 35.4481 77.361 35.0452H78.1369C77.9518 36.0875 77.749 37.051 77.5374 37.9269C77.3258 38.8028 77.0789 39.6525 76.8144 40.4495H76.0561C75.8269 39.889 75.5977 39.3109 75.3772 38.7152C75.1392 38.1196 74.9276 37.4802 74.7071 36.7795Z" fill="#404041"></path>
  <path d="M82.837 35.0452H83.5953V40.4495H82.837V37.9532H80.1743V40.4495H79.416V35.0452H80.1743V37.2963H82.837V35.0452Z" fill="#404041"></path>
  <path d="M88.9724 40.4495C88.8843 40.2131 88.7961 39.9853 88.7256 39.7576C88.6462 39.5298 88.5669 39.3021 88.4787 39.0656H86.0099L85.5162 40.4495H84.7227C84.9343 39.8802 85.1282 39.3459 85.3134 38.8641C85.4985 38.3824 85.6749 37.9182 85.8512 37.4802C86.0276 37.0422 86.2039 36.6218 86.3714 36.2276C86.5478 35.8335 86.7241 35.4393 86.9093 35.0452H87.6058C87.791 35.4393 87.9761 35.8335 88.1436 36.2276C88.32 36.6218 88.4875 37.0422 88.6638 37.4802C88.8402 37.9182 89.0165 38.3824 89.2017 38.8641C89.3868 39.3459 89.5808 39.8802 89.7924 40.4495H88.9724ZM88.2583 38.4437C88.0907 37.9882 87.9232 37.5503 87.7557 37.1298C87.5882 36.7094 87.4206 36.2977 87.2443 35.9123C87.0592 36.3065 86.8828 36.7094 86.7241 37.1298C86.5654 37.5503 86.3979 37.9882 86.2304 38.4437H88.2583Z" fill="#404041"></path>
  <path d="M94.0699 35.0452V35.7021H92.3594V40.4495H91.6011V35.7021H89.8906V35.0452H94.0699Z" fill="#404041"></path>
  <path d="M97.4727 35.0452H98.2309V40.4495H97.4727V35.0452Z" fill="#404041"></path>
  <path d="M103.609 35.0452V35.7021H101.898V40.4495H101.14V35.7021H99.4297V35.0452H103.609Z" fill="#404041"></path>
  <path d="M110.644 35.0452V35.7021H108.934V40.4495H108.175V35.7021H106.465V35.0452H110.644Z" fill="#404041"></path>
  <path d="M114.974 40.4495C114.886 40.2131 114.798 39.9853 114.728 39.7576C114.648 39.5298 114.569 39.3021 114.481 39.0656H112.012L111.518 40.4495H110.725C110.936 39.8802 111.13 39.3459 111.315 38.8641C111.5 38.3824 111.677 37.9182 111.853 37.4802C112.03 37.0422 112.206 36.6218 112.373 36.2276C112.55 35.8335 112.726 35.4393 112.911 35.0452H113.608C113.793 35.4393 113.978 35.8335 114.146 36.2276C114.322 36.6218 114.489 37.0422 114.666 37.4802C114.842 37.9182 115.018 38.3824 115.204 38.8641C115.389 39.3459 115.583 39.8802 115.794 40.4495H114.974ZM114.251 38.4437C114.084 37.9882 113.916 37.5503 113.749 37.1298C113.581 36.7094 113.414 36.2977 113.237 35.9123C113.052 36.3065 112.876 36.7094 112.717 37.1298C112.559 37.5503 112.391 37.9882 112.223 38.4437H114.251Z" fill="#404041"></path>
  <path d="M120.961 35.0452C120.802 35.2203 120.617 35.4218 120.414 35.632C120.211 35.851 120 36.07 119.771 36.2977C119.55 36.5255 119.33 36.7444 119.109 36.9634C118.889 37.1824 118.686 37.3839 118.492 37.5766C118.721 37.7342 118.951 37.9269 119.206 38.1547C119.462 38.3824 119.7 38.6276 119.947 38.8904C120.194 39.1532 120.414 39.416 120.626 39.6875C120.837 39.959 121.014 40.2131 121.155 40.4583H120.256C120.097 40.2131 119.921 39.9678 119.718 39.7225C119.515 39.4773 119.295 39.2408 119.074 39.0131C118.845 38.7853 118.616 38.5751 118.386 38.3824C118.157 38.1897 117.928 38.0233 117.707 37.8919V40.4583H116.949V35.0539H117.707V37.4364C117.893 37.2612 118.095 37.0685 118.316 36.8583C118.536 36.6393 118.757 36.4291 118.968 36.2101C119.18 35.9912 119.383 35.7809 119.577 35.5795C119.771 35.378 119.929 35.2028 120.062 35.0539L120.961 35.0452Z" fill="#404041"></path>
  <path d="M122.266 40.4495V35.0452H125.59V35.6933H123.033V37.2963H125.307V37.9269H123.033V39.8014H125.792V40.4495H122.266Z" fill="#404041"></path>
  <path d="M128.402 39.9065C129.195 39.9065 129.592 39.635 129.592 39.0919C129.592 38.9255 129.557 38.7854 129.486 38.6627C129.416 38.5489 129.319 38.4437 129.204 38.3562C129.081 38.2686 128.948 38.1985 128.79 38.1372C128.631 38.0759 128.472 38.0145 128.296 37.9532C128.093 37.8832 127.908 37.8131 127.732 37.7255C127.555 37.6379 127.397 37.5416 127.273 37.4189C127.141 37.3051 127.035 37.1649 126.965 36.9985C126.894 36.8321 126.85 36.6394 126.85 36.4116C126.85 35.9386 127.009 35.5708 127.335 35.308C127.661 35.0452 128.111 34.9138 128.675 34.9138C129.001 34.9138 129.301 34.9489 129.574 35.0189C129.848 35.089 130.042 35.1678 130.165 35.2467L129.918 35.8598C129.812 35.7897 129.645 35.7284 129.425 35.6583C129.204 35.5883 128.957 35.562 128.666 35.562C128.516 35.562 128.384 35.5795 128.261 35.6058C128.137 35.6321 128.023 35.6846 127.934 35.7459C127.846 35.8072 127.767 35.8861 127.714 35.9824C127.661 36.0788 127.635 36.1927 127.635 36.324C127.635 36.4729 127.661 36.5956 127.723 36.6919C127.785 36.7883 127.864 36.8759 127.97 36.9547C128.076 37.0335 128.199 37.0948 128.331 37.1649C128.472 37.2262 128.622 37.2875 128.79 37.3489C129.028 37.4452 129.239 37.5328 129.433 37.6291C129.627 37.7255 129.804 37.8394 129.945 37.962C130.086 38.0934 130.2 38.2423 130.28 38.4262C130.359 38.6014 130.394 38.8204 130.394 39.0744C130.394 39.5474 130.218 39.9153 129.874 40.1693C129.53 40.4233 129.037 40.5547 128.402 40.5547C128.19 40.5547 127.987 40.5372 127.811 40.5109C127.626 40.4846 127.467 40.4496 127.326 40.4058C127.185 40.362 127.062 40.327 126.965 40.2832C126.868 40.2394 126.779 40.2043 126.727 40.1693L126.956 39.5474C127.079 39.6175 127.256 39.6875 127.502 39.7751C127.749 39.8627 128.049 39.9065 128.402 39.9065Z" fill="#404041"></path>
  <defs>
    <linearGradient id="paint0_linear_880_3429" x1="6.88012" y1="40.5952" x2="39.3377" y2="7.92329" gradientUnits="userSpaceOnUse">
      <stop stop-color="#496A9C"></stop>
      <stop offset="0.0853" stop-color="#477293"></stop>
      <stop offset="0.4856" stop-color="#3E956B"></stop>
      <stop offset="0.8044" stop-color="#39AB53"></stop>
      <stop offset="1" stop-color="#37B34A"></stop>
    </linearGradient>
  </defs>
</svg>
