<svg width="929" height="261" viewBox="0 0 929 261" fill="none" xmlns="http://www.w3.org/2000/svg">
<path d="M928.523 239.323C928.523 252.179 917.735 260.72 903.17 260.72C895.349 260.72 888.876 259.102 882.493 255.596V245.347H882.582C887.347 250.111 895.259 253.438 903.44 253.438C913.599 253.438 919.982 247.504 919.982 239.773C919.982 221.432 882.582 233.3 882.582 206.868C882.582 194.371 892.562 186.28 905.957 186.28C912.52 186.28 918.094 187.179 923.309 190.056V200.305H923.219C919.173 196.259 912.52 193.472 905.598 193.472C896.607 193.472 890.943 199.046 890.943 206.328C890.943 224.669 928.343 212.802 928.343 239.233L928.523 239.323ZM836.192 206.418C836.192 199.136 841.856 193.562 850.847 193.562C857.769 193.562 864.422 196.349 868.468 200.395H868.558V190.146C863.343 187.269 857.769 186.37 851.206 186.37C837.811 186.37 827.831 194.461 827.831 206.958C827.831 233.389 865.231 221.612 865.231 239.862C865.231 247.594 858.848 253.528 848.689 253.528C840.418 253.528 832.506 250.111 827.831 245.436H827.741V255.685C834.124 259.192 840.598 260.81 848.419 260.81C862.894 260.81 873.772 252.269 873.772 239.413C873.772 212.981 836.372 224.759 836.372 206.508L836.192 206.418ZM772.271 259.461H817.672V251.91H781.171V227.186H806.884V219.634H781.171V194.821H817.672V187.269H772.271V259.282V259.461ZM745.12 239.233L699.089 186.28H697.291V259.551H705.652V207.407L752.133 260.81H753.391V187.539H745.03V239.323L745.12 239.233ZM669.242 259.461H678.052V187.449H669.242V259.461ZM617.277 206.418C617.277 199.136 622.941 193.562 631.932 193.562C638.854 193.562 645.507 196.349 649.553 200.395H649.643V190.146C644.428 187.269 638.854 186.37 632.291 186.37C618.896 186.37 608.916 194.461 608.916 206.958C608.916 233.389 646.316 221.612 646.316 239.862C646.316 247.594 639.933 253.528 629.774 253.528C621.503 253.528 613.591 250.111 608.916 245.436H608.826V255.685C615.21 259.192 621.683 260.81 629.504 260.81C643.979 260.81 654.857 252.269 654.857 239.413C654.857 212.981 617.457 224.759 617.457 206.508L617.277 206.418ZM587.699 231.412C587.699 245.796 579.967 253.168 568.909 253.168C557.851 253.168 550.299 245.616 550.299 230.872V187.539H541.489V231.052C541.489 250.381 552.277 260.81 568.28 260.81C585.362 260.81 596.15 249.932 596.15 231.501V187.539H587.789V231.501L587.699 231.412ZM528.902 238.244C528.902 250.831 520.361 259.461 506.696 259.461H480.354V187.449H505.258C518.024 187.449 526.565 195.36 526.565 206.868C526.565 212.802 523.418 218.555 517.934 221.792C524.946 225.298 528.902 231.052 528.902 238.244ZM489.165 219.364H504.718C512.54 219.364 517.664 214.869 517.664 207.497C517.664 199.766 512.54 194.911 504.718 194.911H489.165V219.275V219.364ZM520.092 238.963C520.092 231.412 514.697 226.647 506.876 226.647H489.075V251.999H506.876C514.697 251.999 520.092 247.055 520.092 239.053V238.963ZM425.423 217.207H393.238V187.449H379.213V259.461H393.238V229.344H425.423V259.461H439.448V187.449H425.423V217.207ZM330.215 206.958C330.215 201.564 334.98 197.608 342.622 197.608C349.635 197.608 356.557 200.485 360.962 204.71H361.412V190.416C355.748 187.359 349.455 186.19 342.442 186.19C327.698 186.19 316.64 194.641 316.64 208.306C316.64 235.367 352.871 224.939 352.871 239.593C352.871 244.987 347.297 249.392 338.936 249.392C330.575 249.392 322.484 245.796 317.179 240.762H316.73V255.685C323.113 259.192 330.485 260.72 338.217 260.72C354.31 260.72 366.357 251.91 366.357 238.154C366.357 211.723 330.126 222.961 330.126 206.958H330.215ZM305.942 210.464C305.942 196.799 295.153 187.449 280.499 187.449H253.168V259.461H267.193V199.586H279.42C287.062 199.586 292.096 203.811 292.096 210.464C292.096 217.117 287.062 221.612 279.42 221.612H271.059V224.219L292.276 259.551H308.009L290.208 231.142C299.648 228.175 305.942 220.533 305.942 210.554V210.464ZM212.981 187.449L245.976 259.461H231.052L225.208 245.886H195.54L189.696 259.461H176.031L208.936 187.449H213.071H212.981ZM220.533 235.187L210.374 211.633L200.215 235.187H220.623H220.533ZM133.507 238.064H137.103L155.353 226.557V259.461H168.839V187.449H164.613L133.507 238.064ZM96.9159 187.449V259.461H110.401V226.557L128.652 238.064H132.248L101.141 187.449H96.9159ZM34.0734 187.449L65.8992 259.461H56.3695L49.7166 243.818H15.4634L8.81054 259.461H0L31.7359 187.449H34.0734ZM46.8397 237.255L32.4552 203.631L18.2504 237.255H46.8397ZM635.258 130.81V23.9143H657.104C670.68 23.9143 679.67 31.4662 679.67 43.4234C679.67 55.3805 670.68 63.292 657.104 63.292H639.843V64.0113L680.12 130.899H708.26L676.434 80.1939C693.336 74.8896 704.574 61.2243 704.574 43.4234C704.574 18.9696 685.244 2.24759 659.172 2.24759H610.265V130.899H635.258V130.81ZM588.958 110.042H525.576V76.9574H569.718V56.1897H525.576V23.8244H588.958V2.24759H500.583V130.899H588.958V110.132V110.042ZM401.329 66.8882C401.329 39.2878 418.77 21.6667 442.505 21.6667C456.62 21.6667 469.296 27.3307 479.096 36.7705H479.275V9.17015C468.577 2.42739 454.732 0 441.696 0C403.846 0 376.516 26.971 376.516 66.5286C376.516 106.086 402.947 133.057 441.606 133.057C455.541 133.057 468.217 129.731 479.275 122.538V97.7251H479.096C470.285 106.356 456.53 111.84 443.044 111.84C419.13 111.84 401.329 94.039 401.329 66.7983V66.8882ZM294.344 130.81V23.9143H316.191C329.766 23.9143 338.756 31.4662 338.756 43.4234C338.756 55.3805 329.766 63.292 316.191 63.292H298.929V64.0113L339.206 130.899H367.346L335.52 80.1939C352.422 74.8896 363.66 61.2243 363.66 43.4234C363.66 18.9696 344.33 2.24759 318.258 2.24759H269.351V130.899H294.344V130.81ZM248.044 110.042H184.662V76.9574H228.804V56.1897H184.662V23.8244H248.044V2.24759H159.669V130.899H248.044V110.132V110.042ZM26.2518 57.1786V130.899H3.32643V0H6.38315L67.3377 70.754L128.202 0H131.079V130.81H106.805V57.1786L67.5175 101.681H65.7194L26.2518 57.1786Z" fill="#000F47"/>
</svg>
