<svg width="134" height="48" viewBox="0 0 134 48" fill="none" xmlns="http://www.w3.org/2000/svg">
<path d="M0 30.4622L1.35027 27.4788C2.38125 27.9849 4.42029 28.8092 6.67011 28.8092C8.83996 28.8092 10.1908 28.0635 10.1908 26.7843C10.1908 23.3479 0.158709 25.2392 0.158709 18.2859C0.158709 14.7952 2.72657 12.6642 6.93483 12.6642C9.55539 12.6642 11.9639 13.4898 13.1821 14.0763L11.8846 17.0335C11.8846 17.0335 9.47604 15.9677 7.1202 15.9677C5.13634 15.9677 3.86481 16.7402 3.86481 17.9926C3.86481 21.4827 13.8703 19.8022 13.8703 26.4916C13.8703 30.0347 11.1171 32.1133 6.69677 32.1133C3.44076 32.1133 0.952873 30.9938 0.00123991 30.4609" fill="#7000B8"/>
<path d="M21.8368 17.5947C25.2515 17.5947 27.1839 19.1928 27.1839 22.2036V27.9582C27.1839 28.3326 27.3699 28.4381 27.7661 28.4381C27.9775 28.4381 28.4276 28.4112 28.9837 28.3582V31.2617C28.8777 31.3416 27.7661 31.7147 26.7865 31.7147C25.913 31.7147 24.4574 31.4221 24.4574 29.9051V29.6118C23.6899 30.9709 22.0749 31.9831 20.1691 31.9831C17.6546 31.9831 15.1934 30.4112 15.1934 27.4808C15.1934 24.4968 17.7352 23.0579 20.8839 23.0579C21.8396 23.0654 22.794 23.1279 23.7426 23.2451V22.8457C23.7426 20.8208 22.3663 20.5543 21.2547 20.5543C20.0631 20.5543 18.1313 20.847 17.101 21.0872L16.4389 18.5026C17.6831 18.0764 19.9856 17.5972 21.8387 17.5972M21.5473 25.4029C20.3564 25.4029 18.53 25.6962 18.53 27.3211C18.53 28.5466 19.5889 29.2393 20.7798 29.2393C22.1561 29.2393 23.7444 28.2802 23.7444 27.0016V25.6163C23.0563 25.5096 22.2621 25.4029 21.5473 25.4029Z" fill="#7000B8"/>
<path d="M34.436 12.2109V27.9584C34.436 28.3047 34.6219 28.4383 34.9127 28.4383C35.2847 28.4383 35.6275 28.4114 36.183 28.3578V31.2619C36.077 31.3418 34.648 31.7149 33.5364 31.7149C31.71 31.7149 30.8086 30.5162 30.8086 28.8907V12.2109H34.436Z" fill="#7000B8"/>
<path d="M42.4841 17.8607V31.7137H38.9107V21.0313L37.2988 20.4454V17.8607H42.4841ZM42.4575 13.9981C42.4575 15.117 41.5046 16.0492 40.393 16.0492C39.2548 16.0492 38.4092 15.117 38.4092 13.9981C38.4092 12.9055 39.256 11.9464 40.393 11.9464C41.53 11.9464 42.4575 12.9055 42.4575 13.9981Z" fill="#7000B8"/>
<path d="M44.8124 30.7556L45.898 28.1448C46.8508 28.571 48.2798 29.077 49.6797 29.077C51.5594 29.077 52.1682 28.4112 52.1682 27.7985C52.1682 25.6144 44.8626 26.9991 44.8626 21.8304C44.8626 19.2196 46.9271 17.5947 50.1564 17.5947C52.1942 17.5947 54.0739 18.2336 55.0541 18.6867L53.9692 21.2713C53.9692 21.2713 52.1713 20.472 50.3957 20.472C48.8607 20.472 48.278 21.1646 48.278 21.7774C48.278 23.9084 55.5575 22.603 55.5575 27.7186C55.5575 30.4093 53.3337 31.9813 49.8396 31.9813C48.0895 31.9878 46.3639 31.5673 44.8105 30.7556" fill="#7000B8"/>
<path d="M66.2006 13.0652C69.3506 13.0652 71.8918 15.9163 71.8918 19.0064C71.8918 22.0965 69.35 25.0013 66.28 25.0013H61.7543V31.715H58.0488V13.0652H66.2006ZM61.7537 21.5374H66.2006C67.2862 21.5374 68.1845 20.1789 68.1845 19.0064C68.1845 17.062 66.6495 16.5822 65.0847 16.5822H61.7494L61.7537 21.5374Z" fill="#7000B8"/>
<path d="M79.1435 17.5947C82.5582 17.5947 84.4906 19.1928 84.4906 22.2036V27.9582C84.4906 28.3326 84.6766 28.4381 85.0727 28.4381C85.2847 28.4381 85.7348 28.4112 86.2903 28.3582V31.2617C86.1849 31.3416 85.0727 31.7147 84.0938 31.7147C83.2203 31.7147 81.764 31.4221 81.764 29.9051V29.6118C80.9965 30.9709 79.3821 31.9831 77.4764 31.9831C74.9618 31.9831 72.5 30.4112 72.5 27.4808C72.5 24.4968 75.0418 23.0579 78.1906 23.0579C79.1464 23.0653 80.1011 23.1278 81.0498 23.2451V22.8457C81.0498 20.8208 79.6729 20.5543 78.5613 20.5543C77.3704 20.5543 75.438 20.847 74.4076 21.0872L73.7461 18.5026C74.9897 18.0764 77.2929 17.5972 79.1453 17.5972M78.8546 25.4029C77.663 25.4029 75.8366 25.6962 75.8366 27.3211C75.8366 28.5466 76.8955 29.2393 78.0871 29.2393C79.4634 29.2393 81.0517 28.2802 81.0517 27.0016V25.6163C80.3629 25.5096 79.5694 25.4029 78.8546 25.4029Z" fill="#7000B8"/>
<path d="M89.9189 17.8609L93.307 27.8519H93.3864L96.8804 17.8609H100.718L94.8166 32.5944C93.7844 35.1528 92.7788 36.2442 90.529 36.2442C89.5238 36.2446 88.5243 36.0921 87.5643 35.7918L88.1992 32.4615C88.6759 32.5413 89.8111 32.7279 90.423 32.7011C90.9809 32.7011 91.2438 32.1682 91.4285 31.6353L86.082 17.8609H89.9189Z" fill="#7000B8"/>
<mask id="mask0_1359_23780" style="mask-type:luminance" maskUnits="userSpaceOnUse" x="103" y="23" width="19" height="19">
<path d="M115.398 24.6388L104.584 35.5234C103.268 36.8664 103.275 39.0269 104.601 40.3607C105.926 41.6945 108.073 41.7014 109.406 40.3763L120.22 29.4923C121.546 28.1498 121.546 25.9813 120.22 24.6388C118.887 23.3034 116.732 23.3034 115.398 24.6388Z" fill="white"/>
</mask>
<g mask="url(#mask0_1359_23780)">
<path d="M101.686 23.7822L121.405 22.0317L123.118 41.5784L103.398 43.3289L101.686 23.7822Z" fill="url(#paint0_linear_1359_23780)"/>
<path d="M101.668 22.7514L121.511 21L123.237 40.5412L103.393 42.2925L101.668 22.7514Z" fill="url(#paint1_linear_1359_23780)"/>
</g>
<mask id="mask1_1359_23780" style="mask-type:luminance" maskUnits="userSpaceOnUse" x="103" y="6" width="22" height="26">
<path d="M118.237 31.4882L118.229 31.4963L118.379 31.3459C118.392 31.3328 118.405 31.3197 118.418 31.306L118.237 31.4882ZM104.645 7.81455C103.319 9.15682 103.319 11.3258 104.645 12.6681L118.379 26.4911C119.689 27.8189 119.706 29.9572 118.417 31.306L121.381 28.3232L123.201 26.4911C124.513 25.1631 124.529 23.0233 123.237 21.6756L109.467 7.81455C108.133 6.48015 105.979 6.48015 104.645 7.81455Z" fill="white"/>
</mask>
<g mask="url(#mask1_1359_23780)">
<path d="M101.17 7.00922L124.362 4.95051L126.672 31.3118L103.48 33.3705L101.17 7.00922Z" fill="url(#paint2_linear_1359_23780)"/>
<path d="M101.807 7.15022L125.153 5.08826L127.473 31.4537L104.127 33.5071L101.807 7.15022Z" fill="url(#paint3_linear_1359_23780)"/>
</g>
<path d="M131.332 14.3445C131.332 16.3033 129.665 17.9357 127.718 17.9357C125.725 17.9357 124.246 16.3033 124.246 14.3445C124.246 12.4326 125.728 10.7534 127.718 10.7534C129.707 10.7534 131.332 12.4326 131.332 14.3445Z" fill="#7000B8"/>
<defs>
<linearGradient id="paint0_linear_1359_23780" x1="106.293" y1="35.0007" x2="120.492" y2="32.3346" gradientUnits="userSpaceOnUse">
<stop stop-color="#7000B8"/>
<stop offset="0.65" stop-color="#45A6DE"/>
<stop offset="1" stop-color="#2EFFF2"/>
</linearGradient>
<linearGradient id="paint1_linear_1359_23780" x1="104.895" y1="34.4662" x2="120.579" y2="33.083" gradientUnits="userSpaceOnUse">
<stop stop-color="#2EFFF2"/>
<stop offset="0.42" stop-color="#2EFFF2"/>
<stop offset="0.48" stop-color="#2FFAF1"/>
<stop offset="0.56" stop-color="#33EDEE"/>
<stop offset="0.63" stop-color="#38D7E9"/>
<stop offset="0.71" stop-color="#41B7E2"/>
<stop offset="0.79" stop-color="#4B8FD8"/>
<stop offset="0.87" stop-color="#585DCD"/>
<stop offset="0.95" stop-color="#6724C0"/>
<stop offset="0.99" stop-color="#7000B8"/>
<stop offset="1" stop-color="#7000B8"/>
</linearGradient>
<linearGradient id="paint2_linear_1359_23780" x1="106.763" y1="22.1939" x2="123.519" y2="19.264" gradientUnits="userSpaceOnUse">
<stop stop-color="#7000B8"/>
<stop offset="0.65" stop-color="#45A6DE"/>
<stop offset="1" stop-color="#2EFFF2"/>
</linearGradient>
<linearGradient id="paint3_linear_1359_23780" x1="106.488" y1="21.8629" x2="125.161" y2="20.2161" gradientUnits="userSpaceOnUse">
<stop stop-color="#7000B8"/>
<stop offset="0.09" stop-color="#6333C4"/>
<stop offset="0.22" stop-color="#5370D1"/>
<stop offset="0.34" stop-color="#46A3DD"/>
<stop offset="0.45" stop-color="#3BCBE6"/>
<stop offset="0.56" stop-color="#34E8ED"/>
<stop offset="0.64" stop-color="#30F9F1"/>
<stop offset="0.71" stop-color="#2EFFF2"/>
<stop offset="1" stop-color="#2EFFF2"/>
</linearGradient>
</defs>
</svg>
